<svg width="24" height="24" viewBox="0 0 24 24" fill="none" xmlns="http://www.w3.org/2000/svg">
<path d="M18.39 20.8499H6.61004C6.29236 20.8502 5.98375 20.7439 5.73358 20.5481C5.4834 20.3523 5.3061 20.0783 5.23004 19.7699L2.58004 9.15987C2.55418 9.05658 2.55222 8.94875 2.57432 8.84459C2.59642 8.74044 2.64199 8.64269 2.70756 8.5588C2.77313 8.47491 2.85698 8.40708 2.95272 8.36048C3.04845 8.31387 3.15356 8.28973 3.26004 8.28987H21.74C21.8465 8.28973 21.9516 8.31387 22.0474 8.36048C22.1431 8.40708 22.2269 8.47491 22.2925 8.5588C22.3581 8.64269 22.4037 8.74044 22.4258 8.84459C22.4479 8.94875 22.4459 9.05658 22.42 9.15987L19.77 19.7699C19.694 20.0783 19.5167 20.3523 19.2665 20.5481C19.0163 20.7439 18.7077 20.8502 18.39 20.8499V20.8499Z" stroke="#151515" stroke-width="2.5" stroke-linecap="round" stroke-linejoin="round"/>
<path d="M10.2999 3.14993L7.3999 8.28993" stroke="#151515" stroke-width="2.5" stroke-linecap="round" stroke-linejoin="round"/>
<path d="M14.3804 3.14993L17.2904 8.28993" stroke="#151515" stroke-width="2.5" stroke-linecap="round" stroke-linejoin="round"/>
</svg>
